<svg width="21" height="20" viewBox="0 0 21 20" fill="none" xmlns="http://www.w3.org/2000/svg">
<g id="add">
<path id="Vector" d="M15.75 10.8337H11.5833V15.0003C11.5833 15.4587 11.2083 15.8337 10.75 15.8337C10.2916 15.8337 9.91663 15.4587 9.91663 15.0003V10.8337H5.74996C5.29163 10.8337 4.91663 10.4587 4.91663 10.0003C4.91663 9.54199 5.29163 9.16699 5.74996 9.16699H9.91663V5.00033C9.91663 4.54199 10.2916 4.16699 10.75 4.16699C11.2083 4.16699 11.5833 4.54199 11.5833 5.00033V9.16699H15.75C16.2083 9.16699 16.5833 9.54199 16.5833 10.0003C16.5833 10.4587 16.2083 10.8337 15.75 10.8337Z" fill="#9A9A9A"/>
</g>
</svg>
