<svg width="32" height="32" viewBox="0 0 32 32" fill="none" xmlns="http://www.w3.org/2000/svg">
<g id="info">
<path id="Vector" d="M14.6666 9.33268H17.3333V11.9993H14.6666V9.33268ZM14.6666 14.666H17.3333V22.666H14.6666V14.666ZM16 2.66602C8.63996 2.66602 2.66663 8.63935 2.66663 15.9993C2.66663 23.3594 8.63996 29.3327 16 29.3327C23.36 29.3327 29.3333 23.3594 29.3333 15.9993C29.3333 8.63935 23.36 2.66602 16 2.66602ZM16 26.666C10.12 26.666 5.33329 21.8793 5.33329 15.9993C5.33329 10.1193 10.12 5.33268 16 5.33268C21.88 5.33268 26.6666 10.1193 26.6666 15.9993C26.6666 21.8793 21.88 26.666 16 26.666Z" fill="#FCFCFC"/>
</g>
</svg>
