<svg width="24" height="24" viewBox="0 0 512 512" fill="none" xmlns="http://www.w3.org/2000/svg">
<path d="M122.309 240.822C113.897 249.217 113.897 262.85 122.309 271.246L229.989 378.704C238.401 387.099 252.063 387.099 260.475 378.704C268.888 370.308 268.888 356.675 260.475 348.28L168.006 256L260.408 163.72C268.821 155.325 268.821 141.692 260.408 133.296C251.996 124.901 238.334 124.901 229.921 133.296L122.242 240.754L122.309 240.822ZM359.204 133.364L251.525 240.822C243.112 249.217 243.112 262.85 251.525 271.246L359.204 378.704C367.616 387.099 381.278 387.099 389.691 378.704C398.103 370.308 398.103 356.675 389.691 348.28L297.221 256L389.623 163.72C398.036 155.325 398.036 141.692 389.623 133.296C381.211 124.901 367.549 124.901 359.137 133.296L359.204 133.364Z" />
</svg>
