<svg width="24" height="24" viewBox="0 0 512 512" fill="none" xmlns="http://www.w3.org/2000/svg">
<path d="M271.178 122.309C262.783 113.897 249.15 113.897 240.754 122.309L133.296 229.989C124.901 238.401 124.901 252.063 133.296 260.475C141.692 268.888 155.325 268.888 163.72 260.475L256 168.006L348.28 260.408C356.675 268.821 370.308 268.821 378.704 260.408C387.099 251.996 387.099 238.334 378.704 229.921L271.246 122.242L271.178 122.309ZM378.636 359.204L271.178 251.525C262.783 243.112 249.15 243.112 240.754 251.525L133.296 359.204C124.901 367.616 124.901 381.278 133.296 389.691C141.692 398.103 155.325 398.103 163.72 389.691L256 297.221L348.28 389.623C356.675 398.036 370.308 398.036 378.704 389.623C387.099 381.211 387.099 367.549 378.704 359.137L378.636 359.204Z" />
</svg>
