<svg width="24" height="24" viewBox="0 0 512 512" fill="none" xmlns="http://www.w3.org/2000/svg">
<path d="M271.178 389.691C262.783 398.103 249.15 398.103 240.754 389.691L133.296 282.011C124.901 273.599 124.901 259.937 133.296 251.525C141.692 243.112 155.325 243.112 163.72 251.525L256 343.994L348.28 251.592C356.675 243.179 370.308 243.179 378.704 251.592C387.099 260.004 387.099 273.666 378.704 282.079L271.246 389.758L271.178 389.691ZM378.636 152.796L271.178 260.475C262.783 268.888 249.15 268.888 240.754 260.475L133.296 152.796C124.901 144.384 124.901 130.722 133.296 122.309C141.692 113.897 155.325 113.897 163.72 122.309L256 214.779L348.28 122.377C356.675 113.964 370.308 113.964 378.704 122.377C387.099 130.789 387.099 144.451 378.704 152.863L378.636 152.796Z" />
</svg>
