<svg width="24" height="24" viewBox="0 0 512 512" fill="none" xmlns="http://www.w3.org/2000/svg">
<path d="M389.691 271.178C398.103 262.783 398.103 249.15 389.691 240.754L282.011 133.296C273.599 124.901 259.937 124.901 251.525 133.296C243.112 141.692 243.112 155.325 251.525 163.72L343.994 256L251.592 348.28C243.179 356.675 243.179 370.308 251.592 378.704C260.004 387.099 273.666 387.099 282.079 378.704L389.758 271.246L389.691 271.178ZM152.796 378.636L260.475 271.178C268.888 262.783 268.888 249.15 260.475 240.754L152.796 133.296C144.384 124.901 130.722 124.901 122.309 133.296C113.897 141.692 113.897 155.325 122.309 163.72L214.779 256L122.377 348.28C113.964 356.675 113.964 370.308 122.377 378.704C130.789 387.099 144.451 387.099 152.863 378.704L152.796 378.636Z" />
</svg>
