<svg width="24" height="24" viewBox="0 0 512 512" fill="none" xmlns="http://www.w3.org/2000/svg">
<path d="M335.5 123.857H388.5C403.158 123.857 415 135.667 415 150.286V361.714C415 376.333 403.158 388.143 388.5 388.143H335.5C320.842 388.143 309 399.953 309 414.571C309 429.19 320.842 441 335.5 441H388.5C432.391 441 468 405.487 468 361.714V150.286C468 106.513 432.391 71 388.5 71H335.5C320.842 71 309 82.8103 309 97.4286C309 112.047 320.842 123.857 335.5 123.857ZM327.716 274.665C338.067 264.342 338.067 247.576 327.716 237.252L221.716 131.538C211.364 121.214 194.553 121.214 184.202 131.538C173.85 141.862 173.85 158.627 184.202 168.951L244.986 229.571H70.5C55.8422 229.571 44 241.382 44 256C44 270.618 55.8422 282.429 70.5 282.429H244.986L184.202 343.049C173.85 353.373 173.85 370.138 184.202 380.462C194.553 390.786 211.364 390.786 221.716 380.462L327.716 274.748V274.665Z" />
</svg>
