<svg width="24" height="24" viewBox="0 0 512 512" fill="none" xmlns="http://www.w3.org/2000/svg">
<path d="M274.748 327.716L380.462 221.716C390.786 211.364 390.786 194.553 380.462 184.202C370.138 173.85 353.373 173.85 343.049 184.202L282.429 244.986V70.5C282.429 55.8422 270.618 44 256 44C241.382 44 229.571 55.8422 229.571 70.5V244.986L168.951 184.202C158.627 173.85 141.862 173.85 131.538 184.202C121.214 194.553 121.214 211.364 131.538 221.716L237.252 327.716C247.576 338.067 264.342 338.067 274.748 327.716ZM123.857 335.5C123.857 320.842 112.047 309 97.4286 309C82.8103 309 71 320.842 71 335.5V388.5C71 432.391 106.513 468 150.286 468H361.714C405.487 468 441 432.391 441 388.5V335.5C441 320.842 429.19 309 414.571 309C399.953 309 388.143 320.842 388.143 335.5V388.5C388.143 403.158 376.333 415 361.714 415H150.286C135.667 415 123.857 403.158 123.857 388.5V335.5Z" />
</svg>
