<svg width="24" height="24" viewBox="0 0 512 512" fill="none" xmlns="http://www.w3.org/2000/svg">
<path d="M345.621 185.722H308.765C295.796 185.722 285.318 196.191 285.318 209.148C285.318 222.106 295.796 232.574 308.765 232.574H402.553C415.522 232.574 426 222.106 426 209.148V115.444C426 102.487 415.522 92.0183 402.553 92.0183C389.584 92.0183 379.106 102.487 379.106 115.444V152.926L366.21 140.042C302.097 75.9862 198.198 75.9862 134.085 140.042C69.9718 204.097 69.9718 307.903 134.085 371.958C198.198 436.014 302.097 436.014 366.21 371.958C375.369 362.808 375.369 347.947 366.21 338.796C357.051 329.645 342.177 329.645 333.018 338.796C287.223 384.55 212.999 384.55 167.204 338.796C121.409 293.042 121.409 218.885 167.204 173.131C212.999 127.377 287.223 127.377 333.018 173.131L345.621 185.722Z" />
</svg>
