<svg width="24" height="24" viewBox="0 0 512 512" fill="none" xmlns="http://www.w3.org/2000/svg">
<path d="M274.665 51.7641C264.342 41.412 247.576 41.412 237.252 51.7641L131.538 157.769C121.214 168.121 121.214 184.933 131.538 195.285C141.862 205.637 158.627 205.637 168.951 195.285L229.571 134.498V308.992C229.571 323.651 241.382 335.494 256 335.494C270.618 335.494 282.429 323.651 282.429 308.992V134.498L343.049 195.285C353.373 205.637 370.138 205.637 380.462 195.285C390.786 184.933 390.786 168.121 380.462 157.769L274.748 51.7641H274.665ZM123.857 335.494C123.857 320.835 112.047 308.992 97.4286 308.992C82.8103 308.992 71 320.835 71 335.494V388.496C71 432.389 106.513 468 150.286 468H361.714C405.487 468 441 432.389 441 388.496V335.494C441 320.835 429.19 308.992 414.571 308.992C399.953 308.992 388.143 320.835 388.143 335.494V388.496C388.143 403.155 376.333 414.997 361.714 414.997H150.286C135.667 414.997 123.857 403.155 123.857 388.496V335.494Z" />
</svg>
