<svg width="24" height="24" viewBox="0 0 512 512" fill="none" xmlns="http://www.w3.org/2000/svg">
<path d="M460.236 274.665C470.588 264.342 470.588 247.576 460.236 237.252L354.231 131.538C343.879 121.214 327.067 121.214 316.715 131.538C306.363 141.862 306.363 158.627 316.715 168.951L377.502 229.571H203.008C188.349 229.571 176.506 241.382 176.506 256C176.506 270.618 188.349 282.429 203.008 282.429H377.502L316.715 343.049C306.363 353.373 306.363 370.138 316.715 380.462C327.067 390.786 343.879 390.786 354.231 380.462L460.236 274.748V274.665ZM176.506 123.857C191.165 123.857 203.008 112.047 203.008 97.4286C203.008 82.8103 191.165 71 176.506 71H123.504C79.6111 71 44 106.513 44 150.286V361.714C44 405.487 79.6111 441 123.504 441H176.506C191.165 441 203.008 429.19 203.008 414.571C203.008 399.953 191.165 388.143 176.506 388.143H123.504C108.845 388.143 97.0026 376.333 97.0026 361.714V150.286C97.0026 135.667 108.845 123.857 123.504 123.857H176.506Z" />
</svg>
