<svg width="24" height="24" viewBox="0 0 512 512" fill="none" xmlns="http://www.w3.org/2000/svg">
<path d="M176.714 44C191.333 44 203.143 55.8422 203.143 70.5V97H308.857V70.5C308.857 55.8422 320.667 44 335.286 44C349.904 44 361.714 55.8422 361.714 70.5V97H401.357C423.243 97 441 114.805 441 136.75V176.5H71V136.75C71 114.805 88.7567 97 110.643 97H150.286V70.5C150.286 55.8422 162.096 44 176.714 44ZM71 203H441V428.25C441 450.195 423.243 468 401.357 468H110.643C88.7567 468 71 450.195 71 428.25V203ZM123.857 269.25V295.75C123.857 303.038 129.804 309 137.071 309H163.5C170.768 309 176.714 303.038 176.714 295.75V269.25C176.714 261.962 170.768 256 163.5 256H137.071C129.804 256 123.857 261.962 123.857 269.25ZM229.571 269.25V295.75C229.571 303.038 235.518 309 242.786 309H269.214C276.482 309 282.429 303.038 282.429 295.75V269.25C282.429 261.962 276.482 256 269.214 256H242.786C235.518 256 229.571 261.962 229.571 269.25ZM348.5 256C341.232 256 335.286 261.962 335.286 269.25V295.75C335.286 303.038 341.232 309 348.5 309H374.929C382.196 309 388.143 303.038 388.143 295.75V269.25C388.143 261.962 382.196 256 374.929 256H348.5ZM123.857 375.25V401.75C123.857 409.038 129.804 415 137.071 415H163.5C170.768 415 176.714 409.038 176.714 401.75V375.25C176.714 367.962 170.768 362 163.5 362H137.071C129.804 362 123.857 367.962 123.857 375.25ZM242.786 362C235.518 362 229.571 367.962 229.571 375.25V401.75C229.571 409.038 235.518 415 242.786 415H269.214C276.482 415 282.429 409.038 282.429 401.75V375.25C282.429 367.962 276.482 362 269.214 362H242.786ZM335.286 375.25V401.75C335.286 409.038 341.232 415 348.5 415H374.929C382.196 415 388.143 409.038 388.143 401.75V375.25C388.143 367.962 382.196 362 374.929 362H348.5C341.232 362 335.286 367.962 335.286 375.25Z" />
</svg>
