<svg width="24" height="24" viewBox="0 0 24 24" fill="none" xmlns="http://www.w3.org/2000/svg">
<g id="phone--android-phone-mobile-device-smartphone-iphone">
<path id="Vector" d="M11.6174 15.53C12.1847 15.8966 12.8606 16.0563 13.5317 15.9823C14.2027 15.9085 14.8278 15.6054 15.302 15.1241L15.7165 14.7181C15.8982 14.532 16 14.2819 16 14.0216C16 13.7612 15.8982 13.5113 15.7165 13.3251L13.9571 11.5814C13.7728 11.4 13.5247 11.2983 13.2663 11.2983C13.0078 11.2983 12.7597 11.4 12.5754 11.5814C12.3895 11.7634 12.1399 11.8654 11.8799 11.8654C11.62 11.8654 11.3703 11.7634 11.1844 11.5814L8.42099 8.81373C8.32881 8.72274 8.2556 8.6143 8.20564 8.49473C8.15566 8.37515 8.12993 8.24682 8.12993 8.11719C8.12993 7.98756 8.15566 7.85923 8.20564 7.73965C8.2556 7.62007 8.32881 7.51164 8.42099 7.42065C8.60214 7.23604 8.70365 6.98756 8.70365 6.72872C8.70365 6.46988 8.60214 6.22141 8.42099 6.0368L6.67077 4.28392C6.48494 4.10191 6.23525 4 5.97537 4C5.71539 4 5.46571 4.10191 5.27988 4.28392L4.87454 4.69907C4.39402 5.17396 4.09145 5.80007 4.01765 6.47213C3.94376 7.14419 4.10328 7.82121 4.46928 8.38935C6.37608 11.2039 8.80229 13.6275 11.6174 15.53Z" />
</g>
</svg>
