<svg width="24" height="24" viewBox="0 0 512 512" fill="none" xmlns="http://www.w3.org/2000/svg">
<path d="M256 468C312.226 468 366.149 445.664 405.907 405.907C445.664 366.149 468 312.226 468 256C468 199.774 445.664 145.851 405.907 106.093C366.149 66.3357 312.226 44 256 44C199.774 44 145.851 66.3357 106.093 106.093C66.3357 145.851 44 199.774 44 256C44 312.226 66.3357 366.149 106.093 405.907C145.851 445.664 199.774 468 256 468ZM256 150C267.014 150 275.875 158.861 275.875 169.875V262.625C275.875 273.639 267.014 282.5 256 282.5C244.986 282.5 236.125 273.639 236.125 262.625V169.875C236.125 158.861 244.986 150 256 150ZM229.5 335.5C229.5 328.472 232.292 321.731 237.262 316.762C242.231 311.792 248.972 309 256 309C263.028 309 269.769 311.792 274.738 316.762C279.708 321.731 282.5 328.472 282.5 335.5C282.5 342.528 279.708 349.269 274.738 354.238C269.769 359.208 263.028 362 256 362C248.972 362 242.231 359.208 237.262 354.238C232.292 349.269 229.5 342.528 229.5 335.5Z" />
</svg>
