<svg width="24" height="24" viewBox="0 0 512 512" fill="none" xmlns="http://www.w3.org/2000/svg">
<path d="M256 468C312.226 468 366.149 445.664 405.907 405.907C445.664 366.149 468 312.226 468 256C468 199.774 445.664 145.851 405.907 106.093C366.149 66.3357 312.226 44 256 44C199.774 44 145.851 66.3357 106.093 106.093C66.3357 145.851 44 199.774 44 256C44 312.226 66.3357 366.149 106.093 405.907C145.851 445.664 199.774 468 256 468ZM349.578 217.078L243.578 323.078C235.794 330.862 223.206 330.862 215.505 323.078L162.505 270.078C154.72 262.294 154.72 249.706 162.505 242.005C170.289 234.303 182.877 234.22 190.578 242.005L229.5 280.927L321.422 188.922C329.206 181.138 341.794 181.138 349.495 188.922C357.197 196.706 357.28 209.294 349.495 216.995L349.578 217.078Z" />
</svg>
