<svg width="24" height="24" viewBox="0 0 512 512" fill="none" xmlns="http://www.w3.org/2000/svg">
<path d="M256 468C312.226 468 366.149 445.664 405.907 405.907C445.664 366.149 468 312.226 468 256C468 199.774 445.664 145.851 405.907 106.093C366.149 66.3357 312.226 44 256 44C199.774 44 145.851 66.3357 106.093 106.093C66.3357 145.851 44 199.774 44 256C44 312.226 66.3357 366.149 106.093 405.907C145.851 445.664 199.774 468 256 468ZM196.375 236.125H315.625C326.639 236.125 335.5 244.986 335.5 256C335.5 267.014 326.639 275.875 315.625 275.875H196.375C185.361 275.875 176.5 267.014 176.5 256C176.5 244.986 185.361 236.125 196.375 236.125Z" />
</svg>
