<svg width="24" height="24" viewBox="0 0 512 512" fill="none" xmlns="http://www.w3.org/2000/svg">
<path d="M256 468C312.226 468 366.149 445.664 405.907 405.907C445.664 366.149 468 312.226 468 256C468 199.774 445.664 145.851 405.907 106.093C366.149 66.3357 312.226 44 256 44C199.774 44 145.851 66.3357 106.093 106.093C66.3357 145.851 44 199.774 44 256C44 312.226 66.3357 366.149 106.093 405.907C145.851 445.664 199.774 468 256 468ZM236.125 328.875V275.875H183.125C172.111 275.875 163.25 267.014 163.25 256C163.25 244.986 172.111 236.125 183.125 236.125H236.125V183.125C236.125 172.111 244.986 163.25 256 163.25C267.014 163.25 275.875 172.111 275.875 183.125V236.125H328.875C339.889 236.125 348.75 244.986 348.75 256C348.75 267.014 339.889 275.875 328.875 275.875H275.875V328.875C275.875 339.889 267.014 348.75 256 348.75C244.986 348.75 236.125 339.889 236.125 328.875Z" />
</svg>
