<svg width="24" height="24" viewBox="0 0 512 512" fill="none" xmlns="http://www.w3.org/2000/svg">
<path d="M374.422 362.166C356.12 330.366 321.753 309 282.5 309H229.5C190.247 309 155.88 330.366 137.578 362.166C166.728 394.628 208.963 415 256 415C303.037 415 345.272 394.545 374.422 362.166ZM44 256C44 199.774 66.3357 145.851 106.093 106.093C145.851 66.3357 199.774 44 256 44C312.226 44 366.149 66.3357 405.907 106.093C445.664 145.851 468 199.774 468 256C468 312.226 445.664 366.149 405.907 405.907C366.149 445.664 312.226 468 256 468C199.774 468 145.851 445.664 106.093 405.907C66.3357 366.149 44 312.226 44 256ZM256 269.25C271.814 269.25 286.979 262.968 298.161 251.786C309.343 240.604 315.625 225.439 315.625 209.625C315.625 193.811 309.343 178.646 298.161 167.464C286.979 156.282 271.814 150 256 150C240.186 150 225.021 156.282 213.839 167.464C202.657 178.646 196.375 193.811 196.375 209.625C196.375 225.439 202.657 240.604 213.839 251.786C225.021 262.968 240.186 269.25 256 269.25Z" />
</svg>
