<svg width="24" height="24" viewBox="0 0 512 512" fill="none" xmlns="http://www.w3.org/2000/svg">
<path d="M256 468C312.226 468 366.149 445.664 405.907 405.907C445.664 366.149 468 312.226 468 256C468 199.774 445.664 145.851 405.907 106.093C366.149 66.3357 312.226 44 256 44C199.774 44 145.851 66.3357 106.093 106.093C66.3357 145.851 44 199.774 44 256C44 312.226 66.3357 366.149 106.093 405.907C145.851 445.664 199.774 468 256 468ZM222.875 322.25H242.75V269.25H222.875C211.861 269.25 203 260.389 203 249.375C203 238.361 211.861 229.5 222.875 229.5H262.625C273.639 229.5 282.5 238.361 282.5 249.375V322.25H289.125C300.139 322.25 309 331.111 309 342.125C309 353.139 300.139 362 289.125 362H222.875C211.861 362 203 353.139 203 342.125C203 331.111 211.861 322.25 222.875 322.25ZM256 150C263.028 150 269.769 152.792 274.738 157.762C279.708 162.731 282.5 169.472 282.5 176.5C282.5 183.528 279.708 190.269 274.738 195.238C269.769 200.208 263.028 203 256 203C248.972 203 242.231 200.208 237.262 195.238C232.292 190.269 229.5 183.528 229.5 176.5C229.5 169.472 232.292 162.731 237.262 157.762C242.231 152.792 248.972 150 256 150Z" />
</svg>
