<svg width="24" height="24" viewBox="0 0 512 512" fill="none" xmlns="http://www.w3.org/2000/svg">
<path d="M256 44C312.226 44 366.149 66.3357 405.907 106.093C445.664 145.851 468 199.774 468 256C468 312.226 445.664 366.149 405.907 405.907C366.149 445.664 312.226 468 256 468C199.774 468 145.851 445.664 106.093 405.907C66.3357 366.149 44 312.226 44 256C44 199.774 66.3357 145.851 106.093 106.093C145.851 66.3357 199.774 44 256 44ZM236.125 143.375V256C236.125 262.625 239.437 268.836 244.986 272.562L324.486 325.562C333.595 331.691 345.934 329.206 352.062 320.014C358.191 310.822 355.706 298.566 346.514 292.438L275.875 245.4V143.375C275.875 132.361 267.014 123.5 256 123.5C244.986 123.5 236.125 132.361 236.125 143.375Z" />
</svg>
