<svg width="24" height="24" viewBox="0 0 512 512" fill="none" xmlns="http://www.w3.org/2000/svg">
<path d="M468 162.667C468 136.927 446.874 116 420.889 116H195.124C182.61 116 170.611 120.885 161.778 129.635L50.9194 239.521C46.5028 243.896 44 249.802 44 256C44 262.198 46.5028 268.104 50.9194 272.479L161.778 382.365C170.611 391.115 182.61 396 195.124 396H420.889C446.874 396 468 375.073 468 349.333V162.667ZM243.486 196.938C250.406 190.083 261.594 190.083 268.44 196.938L303.037 231.208L337.635 196.938C344.554 190.083 355.743 190.083 362.589 196.938C369.435 203.792 369.508 214.875 362.589 221.656L327.992 255.927L362.589 290.198C369.508 297.052 369.508 308.135 362.589 314.917C355.669 321.698 344.481 321.771 337.635 314.917L303.037 280.646L268.44 314.917C261.521 321.771 250.332 321.771 243.486 314.917C236.64 308.062 236.567 296.979 243.486 290.198L278.083 255.927L243.486 221.656C236.567 214.802 236.567 203.719 243.486 196.938Z" />
</svg>
