<svg width="24" height="24" viewBox="0 0 512 512" fill="none" xmlns="http://www.w3.org/2000/svg">
<path d="M256 338.333C244.33 338.333 233.139 343.004 224.887 351.318C216.636 359.632 212 370.909 212 382.667C212 394.425 216.636 405.701 224.887 414.015C233.139 422.329 244.33 427 256 427C267.67 427 278.861 422.329 287.113 414.015C295.364 405.701 300 394.425 300 382.667C300 370.909 295.364 359.632 287.113 351.318C278.861 343.004 267.67 338.333 256 338.333ZM256 211.667C244.33 211.667 233.139 216.337 224.887 224.652C216.636 232.966 212 244.242 212 256C212 267.758 216.636 279.034 224.887 287.348C233.139 295.663 244.33 300.333 256 300.333C267.67 300.333 278.861 295.663 287.113 287.348C295.364 279.034 300 267.758 300 256C300 244.242 295.364 232.966 287.113 224.652C278.861 216.337 267.67 211.667 256 211.667ZM300 129.333C300 117.575 295.364 106.299 287.113 97.9849C278.861 89.6708 267.67 85 256 85C244.33 85 233.139 89.6708 224.887 97.9849C216.636 106.299 212 117.575 212 129.333C212 141.091 216.636 152.368 224.887 160.682C233.139 168.996 244.33 173.667 256 173.667C267.67 173.667 278.861 168.996 287.113 160.682C295.364 152.368 300 141.091 300 129.333Z" />
</svg>
