<svg width="24" height="24" viewBox="0 0 512 512" fill="none" xmlns="http://www.w3.org/2000/svg">
<path d="M85 256C85 244.33 89.6708 233.139 97.9849 224.887C106.299 216.636 117.575 212 129.333 212C141.091 212 152.368 216.636 160.682 224.887C168.996 233.139 173.667 244.33 173.667 256C173.667 267.67 168.996 278.861 160.682 287.113C152.368 295.364 141.091 300 129.333 300C117.575 300 106.299 295.364 97.9849 287.113C89.6708 278.861 85 267.67 85 256ZM211.667 256C211.667 244.33 216.337 233.139 224.652 224.887C232.966 216.636 244.242 212 256 212C267.758 212 279.034 216.636 287.348 224.887C295.663 233.139 300.333 244.33 300.333 256C300.333 267.67 295.663 278.861 287.348 287.113C279.034 295.364 267.758 300 256 300C244.242 300 232.966 295.364 224.652 287.113C216.337 278.861 211.667 267.67 211.667 256ZM382.667 212C394.425 212 405.701 216.636 414.015 224.887C422.329 233.139 427 244.33 427 256C427 267.67 422.329 278.861 414.015 287.113C405.701 295.364 394.425 300 382.667 300C370.909 300 359.632 295.364 351.318 287.113C343.004 278.861 338.333 267.67 338.333 256C338.333 244.33 343.004 233.139 351.318 224.887C359.632 216.636 370.909 212 382.667 212Z" />
</svg>
