<svg width="24" height="24" viewBox="0 0 512 512" fill="none" xmlns="http://www.w3.org/2000/svg">
<path d="M256 149.776C309.193 149.776 352.364 192.803 352.364 245.819C352.364 255.616 350.436 265.028 347.738 273.864L406.713 332.643C433.502 309.016 454.702 279.435 468 245.627C434.658 161.493 352.364 101.754 256 101.754C231.524 101.754 208.011 105.596 185.847 112.703L227.669 154.386C236.727 151.697 246.171 149.776 256 149.776ZM76.9564 85.6186C69.44 93.11 69.44 105.211 76.9564 112.703L114.924 150.544C83.7018 175.323 58.84 207.978 44 245.819C77.3418 330.146 159.636 389.885 256 389.885C285.295 389.885 313.24 384.122 339.065 374.134L391.487 426.381C399.004 433.873 411.145 433.873 418.662 426.381C426.178 418.89 426.178 406.789 418.662 399.297L104.324 85.6186C96.8073 78.1271 84.4727 78.1271 76.9564 85.6186ZM256 341.863C202.807 341.863 159.636 298.835 159.636 245.819C159.636 231.029 163.105 217.006 169.08 204.713L199.338 234.87C198.76 238.328 198.182 241.978 198.182 245.819C198.182 277.706 224.007 303.446 256 303.446C259.855 303.446 263.324 302.869 266.985 302.101L297.244 332.259C284.716 338.405 270.84 341.863 256 341.863ZM313.24 239.48C310.349 212.588 289.149 191.651 262.36 188.769L313.24 239.48Z" />
</svg>
