<svg width="24" height="24" viewBox="0 0 512 512" fill="none" xmlns="http://www.w3.org/2000/svg">
<path d="M256 111C159.636 111 77.3418 171.127 44 256C77.3418 340.873 159.636 401 256 401C352.364 401 434.658 340.873 468 256C434.658 171.127 352.364 111 256 111ZM256 352.667C202.807 352.667 159.636 309.36 159.636 256C159.636 202.64 202.807 159.333 256 159.333C309.193 159.333 352.364 202.64 352.364 256C352.364 309.36 309.193 352.667 256 352.667ZM256 198C224.007 198 198.182 223.907 198.182 256C198.182 288.093 224.007 314 256 314C287.993 314 313.818 288.093 313.818 256C313.818 223.907 287.993 198 256 198Z" />
</svg>
