<svg width="24" height="24" viewBox="0 0 512 512" fill="none" xmlns="http://www.w3.org/2000/svg">
<path d="M182.661 58.6578C187.121 49.6313 196.288 44 206.281 44H305.719C315.712 44 324.879 49.6313 329.339 58.6578L335.286 70.5H414.571C429.19 70.5 441 82.3422 441 97C441 111.658 429.19 123.5 414.571 123.5H97.4286C82.8103 123.5 71 111.658 71 97C71 82.3422 82.8103 70.5 97.4286 70.5H176.714L182.661 58.6578ZM97.4286 150H414.571V415C414.571 444.233 390.868 468 361.714 468H150.286C121.132 468 97.4286 444.233 97.4286 415V150ZM176.714 203C169.446 203 163.5 208.962 163.5 216.25V401.75C163.5 409.038 169.446 415 176.714 415C183.982 415 189.929 409.038 189.929 401.75V216.25C189.929 208.962 183.982 203 176.714 203ZM256 203C248.732 203 242.786 208.962 242.786 216.25V401.75C242.786 409.038 248.732 415 256 415C263.268 415 269.214 409.038 269.214 401.75V216.25C269.214 208.962 263.268 203 256 203ZM335.286 203C328.018 203 322.071 208.962 322.071 216.25V401.75C322.071 409.038 328.018 415 335.286 415C342.554 415 348.5 409.038 348.5 401.75V216.25C348.5 208.962 342.554 203 335.286 203Z" />
</svg>
