<svg width="24" height="24" viewBox="0 0 512 512" fill="none" xmlns="http://www.w3.org/2000/svg">
<path d="M255.985 71C267.745 71 278.594 77.1942 284.557 87.3527L463.445 391.281C469.491 401.522 469.491 414.158 463.61 424.4C457.73 434.641 446.715 441 434.872 441H77.0968C65.2538 441 54.2389 434.641 48.3588 424.4C42.4787 414.158 42.5615 401.44 48.5244 391.281L227.412 87.3527C233.375 77.1942 244.224 71 255.985 71ZM255.985 176.714C244.97 176.714 236.108 185.551 236.108 196.536V289.036C236.108 300.02 244.97 308.857 255.985 308.857C266.999 308.857 275.861 300.02 275.861 289.036V196.536C275.861 185.551 266.999 176.714 255.985 176.714ZM282.487 361.714C282.487 354.705 279.694 347.983 274.724 343.026C269.754 338.07 263.013 335.286 255.985 335.286C248.956 335.286 242.215 338.07 237.245 343.026C232.275 347.983 229.483 354.705 229.483 361.714C229.483 368.724 232.275 375.446 237.245 380.402C242.215 385.358 248.956 388.143 255.985 388.143C263.013 388.143 269.754 385.358 274.724 380.402C279.694 375.446 282.487 368.724 282.487 361.714Z" />
</svg>
