<svg width="24" height="24" viewBox="0 0 512 512" fill="none" xmlns="http://www.w3.org/2000/svg">
<path d="M387.713 163.818C398.646 152.886 398.646 135.132 387.713 124.199C376.781 113.267 359.027 113.267 348.094 124.199L256 216.381L163.818 124.287C152.886 113.354 135.132 113.354 124.199 124.287C113.267 135.219 113.267 152.973 124.199 163.906L216.381 256L124.287 348.182C113.354 359.114 113.354 376.868 124.287 387.801C135.219 398.733 152.973 398.733 163.906 387.801L256 295.619L348.182 387.713C359.114 398.646 376.868 398.646 387.801 387.713C398.733 376.781 398.733 359.027 387.801 348.094L295.619 256L387.713 163.818Z" />
</svg>
